# xmcd
#
# Track frame offsets:
#	150
#	17670
#	28892
#	48697
#	63045
#	76745
#
# Disc length: 1234 seconds
#
# Revision: 1
# Processed by: cddbd v1.5.2PL0 Copyright (c) Steve Scherf et al.
# Submitted via: audiograbber 1.83.01
#
DISCID=4104d006
DTITLE=Stephenie Grant - My Old Friend
DYEAR=1900
DGENRE=
TTITLE0=My old friend
TTITLE1=Put a little love in your heart
TTITLE2=Grandpa
TTITLE3=Girls with guitars
TTITLE4=Our country
TTITLE5=Two stars fell
EXTD=
EXTT0=
EXTT1=
EXTT2=
EXTT3=
EXTT4=
EXTT5=
PLAYORDER=
